<?xml version="1.0" encoding="UTF-8" standalone="no"?>
<!DOCTYPE svg PUBLIC "-//W3C//DTD SVG 1.1//EN"
 "http://www.w3.org/Graphics/SVG/1.1/DTD/svg11.dtd">
<!-- Generated by graphviz version 13.1.0 (20250701.0955)
 -->
<!-- Title: interface/driver_sht4x_interface.h Pages: 1 -->
<svg width="375pt" height="176pt"
 viewBox="0.00 0.00 375.00 176.00" xmlns="http://www.w3.org/2000/svg" xmlns:xlink="http://www.w3.org/1999/xlink">
<g id="graph0" class="graph" transform="scale(1 1) rotate(0) translate(4 172)">
<title>interface/driver_sht4x_interface.h</title>
<!-- Node1 -->
<g id="Node000001" class="node">
<title>Node1</title>
<g id="a_Node000001"><a xlink:title="driver sht4x interface header file">
<polygon fill="#999999" stroke="#666666" points="236.38,-168 126.62,-168 126.62,-136 236.38,-136 236.38,-168"/>
<text xml:space="preserve" text-anchor="start" x="134.62" y="-154.5" font-family="Helvetica,sans-Serif" font-size="10.00">interface/driver_sht4x</text>
<text xml:space="preserve" text-anchor="middle" x="181.5" y="-142.5" font-family="Helvetica,sans-Serif" font-size="10.00">_interface.h</text>
</a>
</g>
</g>
<!-- Node2 -->
<g id="Node000002" class="node">
<title>Node2</title>
<g id="a_Node000002"><a xlink:href="driver__sht4x__basic_8h.html" target="_top" xlink:title="driver sht4x basic header file">
<polygon fill="white" stroke="#666666" points="109,-100 0,-100 0,-68 109,-68 109,-100"/>
<text xml:space="preserve" text-anchor="start" x="8" y="-86.5" font-family="Helvetica,sans-Serif" font-size="10.00">example/driver_sht4x</text>
<text xml:space="preserve" text-anchor="middle" x="54.5" y="-74.5" font-family="Helvetica,sans-Serif" font-size="10.00">_basic.h</text>
</a>
</g>
</g>
<!-- Node1&#45;&gt;Node2 -->
<g id="edge1_Node000001_Node000002" class="edge">
<title>Node1&#45;&gt;Node2</title>
<g id="a_edge1_Node000001_Node000002"><a xlink:title=" ">
<path fill="none" stroke="#63b8ff" d="M141.74,-130.34C123.09,-120.65 101.25,-109.3 84.09,-100.38"/>
<polygon fill="#63b8ff" stroke="#63b8ff" points="139.89,-133.32 150.38,-134.83 143.12,-127.11 139.89,-133.32"/>
</a>
</g>
</g>
<!-- Node4 -->
<g id="Node000004" class="node">
<title>Node4</title>
<g id="a_Node000004"><a xlink:href="driver__sht4x__interface__template_8c.html" target="_top" xlink:title="driver sht4x interface template source file">
<polygon fill="white" stroke="#666666" points="236.38,-100 126.62,-100 126.62,-68 236.38,-68 236.38,-100"/>
<text xml:space="preserve" text-anchor="start" x="134.62" y="-86.5" font-family="Helvetica,sans-Serif" font-size="10.00">interface/driver_sht4x</text>
<text xml:space="preserve" text-anchor="middle" x="181.5" y="-74.5" font-family="Helvetica,sans-Serif" font-size="10.00">_interface_template.c</text>
</a>
</g>
</g>
<!-- Node1&#45;&gt;Node4 -->
<g id="edge3_Node000001_Node000004" class="edge">
<title>Node1&#45;&gt;Node4</title>
<g id="a_edge3_Node000001_Node000004"><a xlink:title=" ">
<path fill="none" stroke="#63b8ff" d="M181.5,-124.31C181.5,-116.12 181.5,-107.38 181.5,-100.22"/>
<polygon fill="#63b8ff" stroke="#63b8ff" points="178,-124.18 181.5,-134.18 185,-124.18 178,-124.18"/>
</a>
</g>
</g>
<!-- Node5 -->
<g id="Node000005" class="node">
<title>Node5</title>
<g id="a_Node000005"><a xlink:href="driver__sht4x__read__test_8h.html" target="_top" xlink:title="driver sht4x read test header file">
<polygon fill="white" stroke="#666666" points="366.88,-100 254.12,-100 254.12,-68 366.88,-68 366.88,-100"/>
<text xml:space="preserve" text-anchor="start" x="262.12" y="-86.5" font-family="Helvetica,sans-Serif" font-size="10.00">test/driver_sht4x_read</text>
<text xml:space="preserve" text-anchor="middle" x="310.5" y="-74.5" font-family="Helvetica,sans-Serif" font-size="10.00">_test.h</text>
</a>
</g>
</g>
<!-- Node1&#45;&gt;Node5 -->
<g id="edge4_Node000001_Node000005" class="edge">
<title>Node1&#45;&gt;Node5</title>
<g id="a_edge4_Node000001_Node000005"><a xlink:title=" ">
<path fill="none" stroke="#63b8ff" d="M221.88,-130.34C240.83,-120.65 263.01,-109.3 280.44,-100.38"/>
<polygon fill="#63b8ff" stroke="#63b8ff" points="220.4,-127.17 213.09,-134.84 223.59,-133.4 220.4,-127.17"/>
</a>
</g>
</g>
<!-- Node3 -->
<g id="Node000003" class="node">
<title>Node3</title>
<g id="a_Node000003"><a xlink:href="driver__sht4x__basic_8c.html" target="_top" xlink:title="driver sht4x basic source file">
<polygon fill="white" stroke="#666666" points="109,-32 0,-32 0,0 109,0 109,-32"/>
<text xml:space="preserve" text-anchor="start" x="8" y="-18.5" font-family="Helvetica,sans-Serif" font-size="10.00">example/driver_sht4x</text>
<text xml:space="preserve" text-anchor="middle" x="54.5" y="-6.5" font-family="Helvetica,sans-Serif" font-size="10.00">_basic.c</text>
</a>
</g>
</g>
<!-- Node2&#45;&gt;Node3 -->
<g id="edge2_Node000002_Node000003" class="edge">
<title>Node2&#45;&gt;Node3</title>
<g id="a_edge2_Node000002_Node000003"><a xlink:title=" ">
<path fill="none" stroke="#63b8ff" d="M54.5,-56.31C54.5,-48.12 54.5,-39.38 54.5,-32.22"/>
<polygon fill="#63b8ff" stroke="#63b8ff" points="51,-56.18 54.5,-66.18 58,-56.18 51,-56.18"/>
</a>
</g>
</g>
<!-- Node6 -->
<g id="Node000006" class="node">
<title>Node6</title>
<g id="a_Node000006"><a xlink:href="driver__sht4x__read__test_8c.html" target="_top" xlink:title="driver sht4x read test source file">
<polygon fill="white" stroke="#666666" points="366.88,-32 254.12,-32 254.12,0 366.88,0 366.88,-32"/>
<text xml:space="preserve" text-anchor="start" x="262.12" y="-18.5" font-family="Helvetica,sans-Serif" font-size="10.00">test/driver_sht4x_read</text>
<text xml:space="preserve" text-anchor="middle" x="310.5" y="-6.5" font-family="Helvetica,sans-Serif" font-size="10.00">_test.c</text>
</a>
</g>
</g>
<!-- Node5&#45;&gt;Node6 -->
<g id="edge5_Node000005_Node000006" class="edge">
<title>Node5&#45;&gt;Node6</title>
<g id="a_edge5_Node000005_Node000006"><a xlink:title=" ">
<path fill="none" stroke="#63b8ff" d="M310.5,-56.31C310.5,-48.12 310.5,-39.38 310.5,-32.22"/>
<polygon fill="#63b8ff" stroke="#63b8ff" points="307,-56.18 310.5,-66.18 314,-56.18 307,-56.18"/>
</a>
</g>
</g>
</g>
</svg>
