<?xml version="1.0" encoding="UTF-8" standalone="no"?>
<!DOCTYPE svg PUBLIC "-//W3C//DTD SVG 1.1//EN"
 "http://www.w3.org/Graphics/SVG/1.1/DTD/svg11.dtd">
<!-- Generated by graphviz version 13.1.0 (20250701.0955)
 -->
<!-- Title: sht4x_basic_init Pages: 1 -->
<svg width="261pt" height="342pt"
 viewBox="0.00 0.00 261.00 342.00" xmlns="http://www.w3.org/2000/svg" xmlns:xlink="http://www.w3.org/1999/xlink">
<g id="graph0" class="graph" transform="scale(1 1) rotate(0) translate(4 338)">
<title>sht4x_basic_init</title>
<!-- Node1 -->
<g id="Node000001" class="node">
<title>Node1</title>
<g id="a_Node000001"><a xlink:title="basic example init">
<polygon fill="#999999" stroke="#666666" points="86.5,-180 0,-180 0,-160 86.5,-160 86.5,-180"/>
<text xml:space="preserve" text-anchor="middle" x="43.25" y="-166.5" font-family="Helvetica,sans-Serif" font-size="10.00">sht4x_basic_init</text>
</a>
</g>
</g>
<!-- Node2 -->
<g id="Node000002" class="node">
<title>Node2</title>
<g id="a_Node000002"><a xlink:href="group__sht4x__base__driver.html#gab063d45905fdd808fcc317c8143dcf76" target="_top" xlink:title="initialize the chip">
<polygon fill="white" stroke="#666666" points="216.5,-334 158.5,-334 158.5,-314 216.5,-314 216.5,-334"/>
<text xml:space="preserve" text-anchor="middle" x="187.5" y="-320.5" font-family="Helvetica,sans-Serif" font-size="10.00">sht4x_init</text>
</a>
</g>
</g>
<!-- Node1&#45;&gt;Node2 -->
<g id="edge1_Node000001_Node000002" class="edge">
<title>Node1&#45;&gt;Node2</title>
<g id="a_edge1_Node000001_Node000002"><a xlink:title=" ">
<path fill="none" stroke="#63b8ff" d="M47.25,-180.22C55.17,-205.38 79.08,-270.81 122.5,-305 129.67,-310.65 138.49,-314.62 147.26,-317.41"/>
<polygon fill="#63b8ff" stroke="#63b8ff" points="146.18,-320.75 156.75,-319.96 148,-313.98 146.18,-320.75"/>
</a>
</g>
</g>
<!-- Node3 -->
<g id="Node000003" class="node">
<title>Node3</title>
<g id="a_Node000003"><a xlink:href="group__sht4x__interface__driver.html#gafbc6c1710e90a95a4719a3652ca65ca9" target="_top" xlink:title="interface print format data">
<polygon fill="white" stroke="#666666" points="244.62,-296 130.38,-296 130.38,-264 244.62,-264 244.62,-296"/>
<text xml:space="preserve" text-anchor="start" x="138.38" y="-282.5" font-family="Helvetica,sans-Serif" font-size="10.00">sht4x_interface_debug</text>
<text xml:space="preserve" text-anchor="middle" x="187.5" y="-270.5" font-family="Helvetica,sans-Serif" font-size="10.00">_print</text>
</a>
</g>
</g>
<!-- Node1&#45;&gt;Node3 -->
<g id="edge2_Node000001_Node000003" class="edge">
<title>Node1&#45;&gt;Node3</title>
<g id="a_edge2_Node000001_Node000003"><a xlink:title=" ">
<path fill="none" stroke="#63b8ff" d="M51.29,-180.3C63.76,-197.85 91.37,-233.72 122.5,-255 124.09,-256.09 125.74,-257.14 127.42,-258.15"/>
<polygon fill="#63b8ff" stroke="#63b8ff" points="125.64,-261.16 136.1,-262.83 128.96,-255 125.64,-261.16"/>
</a>
</g>
</g>
<!-- Node4 -->
<g id="Node000004" class="node">
<title>Node4</title>
<g id="a_Node000004"><a xlink:href="group__sht4x__interface__driver.html#ga0f6e0cc325b75ce8744bad40064d2a23" target="_top" xlink:title="interface delay ms">
<polygon fill="white" stroke="#666666" points="252.5,-246 122.5,-246 122.5,-226 252.5,-226 252.5,-246"/>
<text xml:space="preserve" text-anchor="middle" x="187.5" y="-232.5" font-family="Helvetica,sans-Serif" font-size="10.00">sht4x_interface_delay_ms</text>
</a>
</g>
</g>
<!-- Node1&#45;&gt;Node4 -->
<g id="edge3_Node000001_Node000004" class="edge">
<title>Node1&#45;&gt;Node4</title>
<g id="a_edge3_Node000001_Node000004"><a xlink:title=" ">
<path fill="none" stroke="#63b8ff" d="M58.93,-180.37C74.22,-190.78 99.15,-206.72 122.5,-217 126.5,-218.76 130.72,-220.42 134.99,-221.96"/>
<polygon fill="#63b8ff" stroke="#63b8ff" points="133.63,-225.19 144.22,-225.07 135.87,-218.56 133.63,-225.19"/>
</a>
</g>
</g>
<!-- Node5 -->
<g id="Node000005" class="node">
<title>Node5</title>
<g id="a_Node000005"><a xlink:href="group__sht4x__interface__driver.html#gaba5cc494734078fbda2400053d1eea2f" target="_top" xlink:title="interface iic bus deinit">
<polygon fill="white" stroke="#666666" points="236.38,-208 138.62,-208 138.62,-176 236.38,-176 236.38,-208"/>
<text xml:space="preserve" text-anchor="start" x="146.62" y="-194.5" font-family="Helvetica,sans-Serif" font-size="10.00">sht4x_interface_iic</text>
<text xml:space="preserve" text-anchor="middle" x="187.5" y="-182.5" font-family="Helvetica,sans-Serif" font-size="10.00">_deinit</text>
</a>
</g>
</g>
<!-- Node1&#45;&gt;Node5 -->
<g id="edge4_Node000001_Node000005" class="edge">
<title>Node1&#45;&gt;Node5</title>
<g id="a_edge4_Node000001_Node000005"><a xlink:title=" ">
<path fill="none" stroke="#63b8ff" d="M86.93,-176.6C99.59,-178.56 113.69,-180.74 127.2,-182.83"/>
<polygon fill="#63b8ff" stroke="#63b8ff" points="126.46,-186.26 136.87,-184.32 127.53,-179.34 126.46,-186.26"/>
</a>
</g>
</g>
<!-- Node6 -->
<g id="Node000006" class="node">
<title>Node6</title>
<g id="a_Node000006"><a xlink:href="group__sht4x__interface__driver.html#ga05a1a1474512bda61947d6c28d996b6c" target="_top" xlink:title="interface iic bus init">
<polygon fill="white" stroke="#666666" points="245.38,-158 129.62,-158 129.62,-138 245.38,-138 245.38,-158"/>
<text xml:space="preserve" text-anchor="middle" x="187.5" y="-144.5" font-family="Helvetica,sans-Serif" font-size="10.00">sht4x_interface_iic_init</text>
</a>
</g>
</g>
<!-- Node1&#45;&gt;Node6 -->
<g id="edge5_Node000001_Node000006" class="edge">
<title>Node1&#45;&gt;Node6</title>
<g id="a_edge5_Node000001_Node000006"><a xlink:title=" ">
<path fill="none" stroke="#63b8ff" d="M86.93,-163.4C96.83,-161.87 107.61,-160.2 118.3,-158.55"/>
<polygon fill="#63b8ff" stroke="#63b8ff" points="118.53,-162.05 127.88,-157.07 117.46,-155.14 118.53,-162.05"/>
</a>
</g>
</g>
<!-- Node7 -->
<g id="Node000007" class="node">
<title>Node7</title>
<g id="a_Node000007"><a xlink:href="group__sht4x__interface__driver.html#gab239562cca3a7081bb5de4256430c861" target="_top" xlink:title="interface iic bus read command">
<polygon fill="white" stroke="#666666" points="236.38,-120 138.62,-120 138.62,-88 236.38,-88 236.38,-120"/>
<text xml:space="preserve" text-anchor="start" x="146.62" y="-106.5" font-family="Helvetica,sans-Serif" font-size="10.00">sht4x_interface_iic</text>
<text xml:space="preserve" text-anchor="middle" x="187.5" y="-94.5" font-family="Helvetica,sans-Serif" font-size="10.00">_read_cmd</text>
</a>
</g>
</g>
<!-- Node1&#45;&gt;Node7 -->
<g id="edge6_Node000001_Node000007" class="edge">
<title>Node1&#45;&gt;Node7</title>
<g id="a_edge6_Node000001_Node000007"><a xlink:title=" ">
<path fill="none" stroke="#63b8ff" d="M62.62,-159.64C78.3,-150.98 101.57,-138.54 122.5,-129 125.6,-127.59 128.81,-126.18 132.06,-124.79"/>
<polygon fill="#63b8ff" stroke="#63b8ff" points="133.22,-128.1 141.11,-121.03 130.53,-121.63 133.22,-128.1"/>
</a>
</g>
</g>
<!-- Node8 -->
<g id="Node000008" class="node">
<title>Node8</title>
<g id="a_Node000008"><a xlink:href="group__sht4x__interface__driver.html#gaa6ca5fd8ce09df8a069e2bbe61a76fff" target="_top" xlink:title="interface iic bus write command">
<polygon fill="white" stroke="#666666" points="236.38,-70 138.62,-70 138.62,-38 236.38,-38 236.38,-70"/>
<text xml:space="preserve" text-anchor="start" x="146.62" y="-56.5" font-family="Helvetica,sans-Serif" font-size="10.00">sht4x_interface_iic</text>
<text xml:space="preserve" text-anchor="middle" x="187.5" y="-44.5" font-family="Helvetica,sans-Serif" font-size="10.00">_write_cmd</text>
</a>
</g>
</g>
<!-- Node1&#45;&gt;Node8 -->
<g id="edge7_Node000001_Node000008" class="edge">
<title>Node1&#45;&gt;Node8</title>
<g id="a_edge7_Node000001_Node000008"><a xlink:title=" ">
<path fill="none" stroke="#63b8ff" d="M50.73,-159.54C62.74,-140.93 90.2,-101.89 122.5,-79 124.48,-77.6 126.54,-76.26 128.67,-74.99"/>
<polygon fill="#63b8ff" stroke="#63b8ff" points="129.83,-78.34 136.99,-70.53 126.52,-72.17 129.83,-78.34"/>
</a>
</g>
</g>
<!-- Node9 -->
<g id="Node000009" class="node">
<title>Node9</title>
<g id="a_Node000009"><a xlink:href="group__sht4x__base__driver.html#ga7802cc3d8356d63d131cf11932052647" target="_top" xlink:title="set the iic address">
<polygon fill="white" stroke="#666666" points="228.88,-20 146.12,-20 146.12,0 228.88,0 228.88,-20"/>
<text xml:space="preserve" text-anchor="middle" x="187.5" y="-6.5" font-family="Helvetica,sans-Serif" font-size="10.00">sht4x_set_addr</text>
</a>
</g>
</g>
<!-- Node1&#45;&gt;Node9 -->
<g id="edge8_Node000001_Node000009" class="edge">
<title>Node1&#45;&gt;Node9</title>
<g id="a_edge8_Node000001_Node000009"><a xlink:title=" ">
<path fill="none" stroke="#63b8ff" d="M47,-159.72C54.49,-133.73 77.74,-64.93 122.5,-29 126.42,-25.85 130.85,-23.23 135.5,-21.04"/>
<polygon fill="#63b8ff" stroke="#63b8ff" points="136.51,-24.4 144.52,-17.46 133.93,-17.89 136.51,-24.4"/>
</a>
</g>
</g>
</g>
</svg>
